<svg xmlns="http://www.w3.org/2000/svg" xml:space="preserve" width="640" height="640" stroke-miterlimit="10" style="fill-rule:nonzero;clip-rule:evenodd;stroke-linecap:round;stroke-linejoin:round"><path d="M501.346 346.664c-29.437 0-53.327 23.891-53.327 53.328 0 29.436 23.891 53.328 53.327 53.328 29.437 0 53.328-23.892 53.328-53.328 0-29.437-23.89-53.328-53.328-53.328Zm0 85.326c-17.598 0-31.996-14.399-31.996-31.997s14.399-31.996 31.996-31.996c17.598 0 31.997 14.398 31.997 31.996s-14.398 31.997-31.997 31.997Z"/><path fill="#fff" d="M469.392 399.993c0-17.671 14.326-31.996 31.997-31.996s31.996 14.325 31.996 31.996-14.325 31.997-31.996 31.997-31.997-14.326-31.997-31.997Z"/><path d="M160.045 346.664c-29.438 0-53.328 23.891-53.328 53.328 0 29.436 23.892 53.328 53.328 53.328 29.436 0 53.328-23.892 53.328-53.328 0-29.437-23.892-53.328-53.328-53.328Zm0 85.326c-17.599 0-31.996-14.399-31.996-31.997s14.398-31.996 31.996-31.996 31.997 14.398 31.997 31.996-14.399 31.997-31.997 31.997Z"/><path fill="#fff" d="M128.091 399.993c0-17.671 14.325-31.996 31.997-31.996 17.671 0 31.996 14.325 31.996 31.996s-14.325 31.997-31.996 31.997c-17.672 0-31.997-14.326-31.997-31.997Z"/><path d="M629.335 335.999v-53.328c0-3.84-2.026-7.359-5.333-9.279-44.155-25.384-97.378-33.276-154.332-22.931l-83.086-20.798c-5.44-1.386-10.879 1.706-12.692 6.933l-8.853 26.451c-36.583 8.746-70.607 6.719-92.364 3.626l42.556-28.477c2.666-1.707 4.48-4.587 4.8-7.787.214-3.2-.854-6.398-3.092-8.639l-31.997-31.996c-3.626-3.52-9.279-4.16-13.439-1.28l-93.112 62.074c-98.657-3.52-146.12 41.277-165.957 69.007-1.174 1.814-28.05 44.903 1.066 76.899a10.203 10.203 0 0 0 5.76 3.307l53.328 10.666c.746.106 1.386.214 2.133.214 2.452 0 4.8-.854 6.718-2.453 2.56-2.026 3.947-5.012 3.947-8.212 0-41.169 33.49-74.66 74.659-74.66 41.169 0 74.659 33.491 74.659 74.66 0 5.866 4.8 10.665 10.665 10.665h170.652c5.866 0 10.665-4.8 10.665-10.665 0-41.169 33.49-74.66 74.659-74.66 41.169 0 74.66 33.491 74.66 74.66 0 5.866 4.8 10.665 10.666 10.665h42.663c5.866 0 10.665-4.8 10.665-10.665v-53.328c.001-5.869-4.798-10.669-10.664-10.669Zm-10.666 53.328h-21.972c-5.226-47.889-46.075-85.326-95.351-85.326-49.275 0-90.124 37.437-95.35 85.326h-150.6c-5.227-47.889-46.076-85.326-95.351-85.326-48.529 0-88.846 36.263-95.138 83.192L27.15 379.62c-14.399-19.837 2.88-48.101 2.88-48.101 1.494-1.92 3.093-4.053 4.907-6.186h18.45c5.867 0 10.666-4.8 10.666-10.666 0-4.8-3.2-8.638-7.573-10.026 24.424-18.665 63.568-35.516 124.363-32.636 2.346 0 4.586-.534 6.398-1.814l88.739-59.088 16.639 16.531-53.116 35.517c-3.52 2.24-5.332 6.292-4.692 10.452.64 4.053 3.52 7.467 7.466 8.639 2.56.746 63.78 18.665 133.855.106a10.88 10.88 0 0 0 7.358-6.932l7.573-22.718 75.727 18.985c1.494.427 2.986.427 4.586.107 35.41-6.719 87.352-9.067 136.628 17.171v15.041h-10.666c-5.866 0-10.665 4.8-10.665 10.665 0 5.867 4.8 10.666 10.665 10.666h10.666v21.331c0 5.866 4.8 10.665 10.666 10.665v31.998h-.001Z"/><path fill="#fff" d="M181.376 399.993c0-15.775-11.593-28.883-26.664-31.453-15.07 2.57-26.663 15.679-26.663 31.453s11.593 28.883 26.663 31.453c15.071-2.57 26.664-15.679 26.664-31.453Z"/><path fill="#f4f4f4" d="M160.045 367.995c-1.824 0-3.584.245-5.333.544 15.071 2.57 26.664 15.679 26.664 31.453s-11.593 28.883-26.664 31.453c1.749.298 3.509.543 5.333.543 17.599 0 31.997-14.398 31.997-31.996s-14.399-31.997-31.997-31.997Z"/><path fill="#fff" d="M522.678 399.993c0-15.775-11.594-28.883-26.664-31.453-15.07 2.57-26.664 15.679-26.664 31.453s11.594 28.883 26.664 31.453c15.07-2.57 26.664-15.679 26.664-31.453Z"/><path fill="#f4f4f4" d="M501.346 367.995c-1.823 0-3.583.245-5.332.544 15.07 2.57 26.664 15.679 26.664 31.453s-11.594 28.883-26.664 31.453c1.749.298 3.509.543 5.332.543 17.599 0 31.997-14.398 31.997-31.996s-14.398-31.997-31.997-31.997Z"/><g fill="#3470ff"><path d="M408.064 377.808c-.075.309-.171.619-.235.939.064-.32.16-.619.235-.939ZM27.15 379.622c-1.056-1.462-1.899-2.977-2.635-4.502.726 1.525 1.569 3.04 2.635 4.502ZM67.04 376.507c-.055.223-.128.447-.193.672.055-.235.129-.447.192-.672ZM23.94 373.755ZM253.561 378.758c-.075-.32-.172-.64-.245-.96.075.32.171.629.245.96ZM594.863 378.758c-.075-.32-.171-.64-.245-.96.074.32.17.629.245.96ZM608.004 346.664v-21.331h-10.666c-5.866 0-10.665-4.8-10.665-10.666 0-5.866 4.8-10.665 10.665-10.665h10.666v-15.038c-49.276-26.238-101.218-23.892-136.628-17.172-1.6.32-3.092.32-4.586-.106l-75.727-18.985-7.573 22.717a10.882 10.882 0 0 1-7.358 6.933c-70.073 18.559-131.295.64-133.855-.106-3.946-1.174-6.826-4.587-7.466-8.639-.64-4.16 1.173-8.213 4.692-10.453l53.116-35.516-16.639-16.532-88.739 59.088c-1.813 1.28-4.052 1.814-6.398 1.814-60.795-2.88-99.937 13.973-124.363 32.637 4.373 1.386 7.573 5.226 7.573 10.026 0 5.866-4.8 10.665-10.665 10.665H34.937c-1.814 2.133-3.413 4.266-4.907 6.186 0 0-9.887 16.223-8.436 32.712a38.88 38.88 0 0 1-.106-5.099l48.454 8.074c13.437-36.83 48.741-63.206 90.103-63.206 41.649 0 77.188 26.793 90.381 63.995h160.55c13.182-37.202 48.72-63.995 90.38-63.995 41.661 0 77.189 26.793 90.381 63.995h26.942v-10.665c-5.877-.002-10.675-4.802-10.675-10.668ZM22.361 368.934a32.255 32.255 0 0 1-.715-4.245c.15 1.43.384 2.838.715 4.245Z"/></g><g fill="#0b44cd"><path d="M69.92 367.197a94.274 94.274 0 0 0-2.88 9.311 101.067 101.067 0 0 1 2.88-9.311ZM21.646 364.7c-.01-.16-.053-.308-.063-.468.02.148.053.308.063.468ZM24.515 375.12c-.214-.447-.384-.906-.576-1.355.182.449.352.897.576 1.355ZM66.848 377.179c-.81 3.285-1.494 6.613-1.951 10.015.457-3.402 1.13-6.741 1.951-10.015ZM22.713 370.278c-.128-.448-.257-.896-.353-1.344.108.449.236.896.353 1.344Z"/><path d="M21.583 364.23c.01.16.042.309.063.469.14 1.419.384 2.838.715 4.245.107.448.235.896.353 1.344a31.92 31.92 0 0 0 1.216 3.477c.193.448.363.907.576 1.355.737 1.537 1.58 3.05 2.636 4.502l37.756 7.572c.459-3.402 1.141-6.741 1.951-10.015.054-.224.128-.447.193-.672a94.03 94.03 0 0 1 2.89-9.3l-48.454-8.074a38.68 38.68 0 0 0 .105 5.097ZM596.697 389.327c-.395-3.594-1.045-7.104-1.835-10.57.801 3.456 1.441 6.976 1.835 10.57ZM591.717 367.995c1.13 3.2 2.09 6.474 2.901 9.802a95.449 95.449 0 0 0-2.901-9.802Z"/><path d="M594.618 377.798c.075.32.172.64.245.96.779 3.466 1.44 6.975 1.835 10.57h21.972v-21.331h-26.942a97.982 97.982 0 0 1 2.89 9.801ZM255.396 389.327c-.395-3.594-1.045-7.104-1.835-10.57.8 3.456 1.44 6.976 1.835 10.57ZM410.966 367.995a94.844 94.844 0 0 0-2.902 9.813c.81-3.328 1.77-6.613 2.902-9.813ZM250.414 367.995c1.13 3.2 2.09 6.474 2.902 9.802a94.708 94.708 0 0 0-2.902-9.802ZM407.819 378.747c-.778 3.466-1.44 6.986-1.835 10.58.395-3.594 1.035-7.124 1.835-10.58Z"/><path d="M253.316 377.798c.075.32.171.64.245.96.778 3.466 1.44 6.975 1.835 10.57h150.6c.395-3.594 1.045-7.114 1.835-10.58.075-.32.16-.619.235-.939a94.088 94.088 0 0 1 2.901-9.812H250.414a94.472 94.472 0 0 1 2.902 9.801Z"/></g></svg>